# This file uses feet as units for non-parametric coordinates.

mtllib anvil.mtl
g default
v -17.135180 47.369689 15.456646
v 41.370323 47.369689 15.456646
v -17.135180 51.413825 15.456646
v 41.370323 51.413825 15.456646
v -17.135180 47.369689 -15.456646
v 41.370323 47.369689 -15.456646
v -17.135180 51.413825 -15.456646
v 41.370323 51.413825 -15.456646
v -24.668084 31.124321 -12.449790
v -24.668084 45.927658 -12.449790
v -17.274672 47.654049 -12.355003
v -17.274672 28.166436 -12.355003
v -24.668084 31.124321 12.330518
v -24.668084 45.927658 12.330518
v -17.274672 47.654049 12.355003
v -17.274672 28.166436 12.355003
v -31.911248 33.622552 -11.586502
v -31.719264 46.316453 -11.586502
v -31.911248 33.622552 11.467230
v -31.719264 46.316453 11.467230
v -40.618329 37.763704 -9.718023
v -40.480880 46.666851 -9.718023
v -40.618329 37.763704 9.598751
v -40.480880 46.666851 9.598751
v -48.540960 41.842528 -7.480967
v -48.450995 47.321088 -7.480967
v -48.540960 41.842528 7.361509
v -48.450995 47.321088 7.361509
v -51.531119 44.863852 -2.275082
v -51.494207 47.904280 -2.275082
v -51.531119 44.863852 2.155624
v -51.494207 47.904280 2.155624
v -14.151512 25.366778 12.355003
v -12.298799 20.951283 12.355003
v -12.093087 15.732970 12.355003
v -13.431053 10.514657 12.355003
v -16.312886 5.697567 12.355003
v -19.503566 4.373698 12.355003
v 40.984867 47.330550 12.355003
v 40.263110 44.311452 12.355003
v 32.327683 41.315353 12.355003
v 23.107155 36.615311 12.355003
v 17.178214 30.891713 12.355003
v 12.203084 22.645398 12.355003
v 11.829871 15.207281 12.355003
v 14.068782 8.739481 12.355003
v 17.551242 4.373698 12.355003
v -14.151512 25.366778 -12.355003
v -12.298799 20.951283 -12.355003
v -12.093087 15.732970 -12.355003
v -13.431053 10.514657 -12.355003
v -16.312886 5.697567 -12.355003
v -19.503566 4.373698 -12.355003
v 40.984867 47.330550 -12.355003
v 40.263110 44.311452 -12.355003
v 32.327683 41.315353 -12.355003
v 23.107155 36.615311 -12.355003
v 17.178214 30.891713 -12.355003
v 12.203084 22.645398 -12.355003
v 11.829871 15.207281 -12.355003
v 14.068782 8.739481 -12.355003
v 17.551242 4.373698 -12.355003
v -3.128168 -0.188895 -14.677201
v 3.128168 -0.188895 -14.677201
v -30.268885 4.365907 20.686459
v 30.268885 4.365907 20.686459
v -3.128168 -0.188895 14.677201
v 3.128168 -0.188895 14.677201
v -30.268885 4.365907 -20.686459
v 30.268885 4.365907 -20.686459
v -11.020375 -0.188895 -17.236088
v 11.020375 -0.188895 -17.236088
v 16.673856 4.365907 20.686459
v -16.673856 4.365907 20.686459
v -11.020375 -0.188895 17.236088
v 11.020375 -0.188895 17.236088
v 16.673856 4.365907 -20.686459
v -16.673856 4.365907 -20.686459
v -16.673856 -0.188895 -20.686459
v 16.673856 -0.188895 -20.686459
v 11.020375 4.365907 17.236088
v -11.020375 4.365907 17.236088
v -16.673856 -0.188895 20.686459
v 16.673856 -0.188895 20.686459
v 11.020375 4.365907 -17.236088
v -11.020375 4.365907 -17.236088
v 30.268885 -0.188895 -20.686459
v -30.268885 -0.188895 -20.686459
v 3.128168 4.365907 14.677201
v -3.128168 4.365907 14.677201
v 30.268885 -0.188895 20.686459
v -30.268885 -0.188895 20.686459
v 3.128168 4.365907 -14.677201
v -3.128168 4.365907 -14.677201
v -17.135180 51.413825 15.456646
v -17.135180 51.413825 15.456646
v -17.135180 47.369689 15.456646
v -17.135180 47.369689 15.456646
v 41.370323 47.369689 15.456646
v 41.370323 47.369689 15.456646
v 41.370323 51.413825 15.456646
v 41.370323 51.413825 15.456646
v -17.135180 51.413825 -15.456646
v -17.135180 51.413825 -15.456646
v -17.135180 47.369689 -15.456646
v -17.135180 47.369689 -15.456646
v 41.370323 47.369689 -15.456646
v 41.370323 47.369689 -15.456646
v 41.370323 51.413825 -15.456646
v 41.370323 51.413825 -15.456646
v -12.298799 20.951283 12.355003
v -12.093087 15.732970 12.355003
v -14.151512 25.366778 12.355003
v -13.431053 10.514657 12.355003
v -16.312886 5.697567 12.355003
v -19.503566 4.373698 12.355003
v 32.327683 41.315353 12.355003
v 40.263110 44.311452 12.355003
v 40.263110 44.311452 12.355003
v 23.107155 36.615311 12.355003
v 17.178214 30.891713 12.355003
v 12.203084 22.645398 12.355003
v 11.829871 15.207281 12.355003
v 14.068782 8.739481 12.355003
v 17.551242 4.373698 12.355003
v -14.151512 25.366778 -12.355003
v -12.298799 20.951283 -12.355003
v -12.093087 15.732970 -12.355003
v -13.431053 10.514657 -12.355003
v -16.312886 5.697567 -12.355003
v -19.503566 4.373698 -12.355003
v 32.327683 41.315353 -12.355003
v 40.263110 44.311452 -12.355003
v 40.263110 44.311452 -12.355003
v 23.107155 36.615311 -12.355003
v 17.178214 30.891713 -12.355003
v 12.203084 22.645398 -12.355003
v 11.829871 15.207281 -12.355003
v 14.068782 8.739481 -12.355003
v 17.551242 4.373698 -12.355003
v 40.984867 47.330550 -12.355003
v 40.984867 47.330550 12.355003
v -16.673856 4.365907 20.686459
v -30.268885 4.365907 20.686459
v -30.268885 4.365907 20.686459
v -16.673856 4.365907 -20.686459
v -30.268885 4.365907 -20.686459
v -30.268885 4.365907 -20.686459
v 30.268885 4.365907 20.686459
v 30.268885 4.365907 20.686459
v 30.268885 4.365907 -20.686459
v 30.268885 4.365907 -20.686459
v 16.673856 4.365907 20.686459
v -11.020375 4.365907 17.236088
v 16.673856 4.365907 -20.686459
v -11.020375 4.365907 -17.236088
v -30.268885 -0.188895 20.686459
v -30.268885 -0.188895 20.686459
v 30.268885 -0.188895 20.686459
v 30.268885 -0.188895 20.686459
v 30.268885 -0.188895 -20.686459
v 30.268885 -0.188895 -20.686459
v 11.020375 -0.188895 -17.236088
v 3.128168 -0.188895 -14.677201
v 11.020375 4.365907 17.236088
v -3.128168 4.365907 14.677201
v -3.128168 -0.188895 14.677201
v -11.020375 -0.188895 17.236088
v 11.020375 4.365907 -17.236088
v -3.128168 4.365907 -14.677201
v 3.128168 -0.188895 14.677201
v -3.128168 -0.188895 -14.677201
v -11.020375 -0.188895 -17.236088
v 16.673856 -0.188895 20.686459
v 11.020375 -0.188895 17.236088
v -30.268885 -0.188895 -20.686459
v -30.268885 -0.188895 -20.686459
v -16.673856 -0.188895 -20.686459
v 3.128168 4.365907 14.677201
v 16.673856 -0.188895 -20.686459
v 3.128168 4.365907 -14.677201
v -16.673856 -0.188895 20.686459
vt 0.582479 0.791132
vt 0.942247 0.791132
vt 0.942247 0.817368
vt 0.582479 0.817368
vt 0.582479 0.979185
vt 0.582479 0.952949
vt 0.942247 0.952949
vt 0.942247 0.979185
vt 0.970068 0.147868
vt 0.610300 0.147868
vt 0.610300 0.012287
vt 0.970068 0.012287
vt 0.556243 0.817368
vt 0.556243 0.952949
vt 0.968483 0.817368
vt 0.968483 0.952949
vt 0.854764 0.338316
vt 0.733416 0.376400
vt 0.728543 0.326157
vt 0.832233 0.293878
vt 0.869437 0.391443
vt 0.748588 0.428927
vt 0.478519 0.370944
vt 0.507048 0.317193
vt 0.621909 0.379866
vt 0.596701 0.433339
vt 0.998130 0.321043
vt 0.953280 0.285447
vt 0.641002 0.330965
vt 0.540750 0.268185
vt 0.591736 0.212917
vt 0.666910 0.273892
vt 0.913518 0.249679
vt 0.802670 0.242883
vt 0.723716 0.270788
vt 0.719997 0.226190
vt 0.771880 0.204160
vt 0.856311 0.209279
vt 0.691648 0.227491
vt 0.708122 0.193341
vt 0.727412 0.204722
vt 0.798711 0.178575
vt 0.649932 0.171510
vt 0.725753 0.174690
vt 0.744685 0.192587
vt 0.757367 0.173202
vt 0.693615 0.174079
vt 0.567396 0.455044
vt 0.821343 0.456530
vt 0.797291 0.487955
vt 0.589207 0.464744
vt 0.608754 0.499687
vt 0.781674 0.534628
vt 0.617703 0.537469
vt 0.783917 0.588419
vt 0.616071 0.575189
vt 0.817664 0.648241
vt 0.025098 0.305544
vt 0.019861 0.285480
vt 0.104836 0.260946
vt 0.123057 0.281876
vt 0.436872 0.077546
vt 0.383858 0.126347
vt 0.603188 0.607040
vt 0.858055 0.689860
vt 0.111605 0.459209
vt 0.130563 0.444188
vt 0.350345 0.368489
vt 0.372152 0.398745
vt 0.142244 0.401178
vt 0.332495 0.320780
vt 0.144329 0.356936
vt 0.327632 0.258826
vt 0.137541 0.315391
vt 0.350649 0.181624
vt 0.448086 0.346663
vt 0.455336 0.373951
vt 0.443276 0.312676
vt 0.445452 0.275576
vt 0.461158 0.229507
vt 0.484845 0.190582
vt 0.523897 0.142765
vt 0.558662 0.096311
vt 0.472785 0.045667
vt 0.568888 0.079385
vt 0.477548 0.024198
vt 0.580841 0.768051
vt 0.581666 0.627156
vt 0.921047 0.724210
vt 0.975305 0.746191
vt 0.016881 0.431117
vt 0.022432 0.412397
vt 0.028570 0.385231
vt 0.030833 0.357106
vt 0.029339 0.329853
vt 0.980123 0.768049
vt 0.076680 0.114157
vt 0.337452 0.519836
vt 0.282242 0.529774
vt 0.280090 0.497204
vt 0.331023 0.489056
vt 0.374833 0.509132
vt 0.466273 0.503508
vt 0.466273 0.707652
vt 0.377577 0.701465
vt 0.049749 0.502337
vt 0.139188 0.510288
vt 0.141271 0.703655
vt 0.048622 0.709075
vt 0.337511 0.691130
vt 0.280421 0.681858
vt 0.331647 0.723915
vt 0.278095 0.715973
vt 0.463740 0.739653
vt 0.373204 0.732485
vt 0.369129 0.479163
vt 0.179058 0.692882
vt 0.234814 0.682627
vt 0.237153 0.715686
vt 0.185583 0.724032
vt 0.462965 0.468857
vt 0.146990 0.734017
vt 0.014955 0.708891
vt 0.016083 0.502153
vt 0.237103 0.529983
vt 0.179950 0.521111
vt 0.186153 0.488057
vt 0.239826 0.496730
vt 0.499517 0.503508
vt 0.499517 0.707652
vt 0.144728 0.478877
vt 0.051874 0.744197
vt 0.052926 0.469889
vt 0.341594 0.779029
vt 0.434766 0.779029
vt 0.434766 0.981261
vt 0.341594 0.981261
vt 0.113049 0.779029
vt 0.113049 0.981261
vt 0.019877 0.981261
vt 0.019877 0.779030
vt 0.151794 0.795895
vt 0.151794 0.964395
vt 0.205883 0.808403
vt 0.205883 0.951888
vt 0.248760 0.808403
vt 0.248760 0.951888
vt 0.302849 0.795895
vt 0.302849 0.964395
vt 0.582479 0.817368
vt 0.582479 0.952949
vt 0.942247 0.817368
vt 0.942247 0.952949
vt 0.582479 0.817368
vt 0.942247 0.817368
vt 0.942247 0.952949
vt 0.582479 0.952949
vt 0.123057 0.281876
vt 0.123057 0.281876
vt 0.372152 0.398745
vt 0.350345 0.368489
vt 0.350345 0.368489
vt 0.332495 0.320780
vt 0.332495 0.320780
vt 0.327632 0.258826
vt 0.327632 0.258826
vt 0.350649 0.181624
vt 0.350649 0.181624
vt 0.383858 0.126347
vt 0.383858 0.126347
vt 0.436872 0.077546
vt 0.436872 0.077546
vt 0.558662 0.096311
vt 0.472785 0.045667
vt 0.130563 0.444188
vt 0.111605 0.459209
vt 0.142244 0.401178
vt 0.130563 0.444188
vt 0.144329 0.356936
vt 0.142244 0.401178
vt 0.137541 0.315391
vt 0.144329 0.356936
vt 0.137541 0.315391
vt 0.477548 0.024198
vt 0.472785 0.045667
vt 0.472785 0.045667
vt 0.337452 0.519836
vt 0.337511 0.691130
vt 0.377577 0.701465
vt 0.466273 0.707652
vt 0.337511 0.691130
vt 0.377577 0.701465
vt 0.374833 0.509132
vt 0.466273 0.503508
vt 0.374833 0.509132
vt 0.141271 0.703655
vt 0.049749 0.502337
vt 0.048622 0.709075
vt 0.179950 0.521111
vt 0.179058 0.692882
vt 0.282242 0.529774
vt 0.337452 0.519836
vt 0.280421 0.681858
vt 0.179950 0.521111
vt 0.237103 0.529983
vt 0.234814 0.682627
vt 0.179058 0.692882
vt 0.237103 0.529983
vt 0.282242 0.529774
vt 0.280421 0.681858
vt 0.234814 0.682627
vt 0.466273 0.707652
vt 0.466273 0.503508
vt 0.139188 0.510288
vt 0.048622 0.709075
vt 0.141271 0.703655
vt 0.139188 0.510288
vt 0.049749 0.502337
vn 0.000000 0.000000 1.000000
vn 0.000000 0.000000 1.000000
vn 0.000000 0.000000 1.000000
vn 0.000000 0.000000 1.000000
vn 0.000000 -0.000000 -1.000000
vn 0.000000 -0.000000 -1.000000
vn 0.000000 -0.000000 -1.000000
vn 0.000000 -0.000000 -1.000000
vn 0.000000 -1.000000 0.000000
vn 0.000000 -1.000000 0.000000
vn 0.000000 -1.000000 0.000000
vn 0.000000 -1.000000 0.000000
vn -1.000000 0.000000 0.000000
vn -1.000000 0.000000 0.000000
vn -1.000000 0.000000 0.000000
vn -1.000000 0.000000 0.000000
vn 1.000000 0.000000 0.000000
vn 1.000000 0.000000 0.000000
vn 1.000000 0.000000 0.000000
vn 1.000000 0.000000 0.000000
vn 0.000000 1.000000 -0.000000
vn 0.000000 1.000000 -0.000000
vn 0.000000 1.000000 -0.000000
vn 0.000000 1.000000 -0.000000
vn -0.104754 0.699719 0.706696
vn -0.099093 0.700141 -0.707095
vn -0.082711 0.710137 -0.699189
vn -0.082711 0.710136 0.699189
vn -0.072948 0.307921 0.948611
vn -0.067873 0.308039 -0.948950
vn -0.290350 -0.466085 0.835740
vn -0.287387 -0.655968 0.697936
vn -0.282196 -0.657037 -0.699047
vn -0.286232 -0.466698 -0.836818
vn -0.372580 -0.634100 -0.677570
vn -0.372580 -0.634100 0.677570
vn -0.459858 -0.601047 0.653661
vn -0.459852 -0.601049 -0.653664
vn -0.126763 0.712403 0.690227
vn -0.126756 0.712402 -0.690229
vn -0.328965 0.760811 -0.559418
vn -0.328972 0.760810 0.559416
vn -0.730268 -0.499871 -0.465657
vn -0.950049 -0.250416 -0.186275
vn -0.829787 0.498944 -0.250018
vn -0.730272 -0.499869 0.465654
vn -0.950049 -0.250416 0.186276
vn -0.829787 0.498944 0.250018
vn 0.000000 0.000000 1.000000
vn 0.000000 0.000000 1.000000
vn 0.000000 0.000000 1.000000
vn 0.000000 0.000000 1.000000
vn 0.000000 0.000000 1.000000
vn 0.000000 0.000000 1.000000
vn 0.000000 0.000000 1.000000
vn 0.000000 0.000000 1.000000
vn 0.000000 -0.000000 1.000000
vn 0.000000 -0.000000 1.000000
vn -0.814678 -0.579914 0.000000
vn -0.814678 -0.579914 0.000000
vn 0.000000 -0.000000 -1.000000
vn 0.000000 -0.000000 -1.000000
vn 0.000000 -0.000000 -1.000000
vn 0.000000 -0.000000 1.000000
vn 0.000000 -0.000000 1.000000
vn 0.000000 -0.000000 -1.000000
vn 0.000000 -0.000000 -1.000000
vn 0.000000 -0.000000 -1.000000
vn 0.000000 -0.000000 -1.000000
vn 0.000000 0.000000 -1.000000
vn 0.000000 0.000000 -1.000000
vn 0.000000 0.000000 -1.000000
vn 0.000000 0.000000 -1.000000
vn 0.000000 -0.000000 -1.000000
vn 0.000000 -0.000000 -1.000000
vn 0.876003 0.482307 -0.000000
vn 0.781756 0.623584 -0.000000
vn 0.781756 0.623584 -0.000000
vn 0.876003 0.482307 -0.000000
vn 0.989997 0.141087 -0.000000
vn 0.989997 0.141087 -0.000000
vn 0.956367 -0.292169 0.000000
vn 0.956367 -0.292169 0.000000
vn 0.781995 -0.623285 0.000000
vn 0.781995 -0.623285 0.000000
vn 0.580703 -0.814115 0.000000
vn 0.580703 -0.814115 0.000000
vn 0.404297 -0.914628 0.000000
vn 0.404297 -0.914628 0.000000
vn 0.353222 -0.935539 0.000000
vn 0.353222 -0.935539 0.000000
vn 0.972593 -0.232512 0.000000
vn 0.972593 -0.232512 0.000000
vn 0.972593 -0.232512 0.000000
vn 0.972593 -0.232512 0.000000
vn 0.000000 -0.000000 1.000000
vn 0.000000 0.000000 1.000000
vn -0.383239 0.923649 -0.000000
vn -0.653714 0.756742 -0.000000
vn -0.653714 0.756742 -0.000000
vn -0.383239 0.923649 -0.000000
vn -0.922973 0.384866 -0.000000
vn -0.922973 0.384866 -0.000000
vn -0.994409 0.105598 -0.000000
vn -0.994409 0.105598 -0.000000
vn -0.976258 -0.216611 0.000000
vn -0.976258 -0.216611 0.000000
vn 0.000000 0.000001 1.000000
vn 0.000000 0.000001 -1.000000
vn 0.000000 0.000000 -1.000000
vn -0.417552 0.000000 0.908653
vn -0.156126 0.000000 0.987737
vn -0.156126 0.000000 0.987737
vn -0.417552 0.000000 0.908653
vn 0.000000 1.000000 -0.000000
vn 0.000000 1.000000 -0.000000
vn 0.000000 1.000000 -0.000000
vn 0.000000 1.000000 -0.000000
vn 0.000000 1.000000 -0.000000
vn 0.000000 1.000000 -0.000000
vn 0.000000 1.000000 -0.000000
vn 0.000000 1.000000 -0.000000
vn 0.000000 1.000000 -0.000000
vn 0.000000 1.000000 -0.000000
vn -0.156126 -0.000000 -0.987737
vn -0.417552 -0.000000 -0.908653
vn -0.417552 -0.000000 -0.908653
vn -0.156126 -0.000000 -0.987737
vn -0.270568 -0.000000 -0.962701
vn 0.000000 -0.000000 -1.000000
vn 0.000000 -0.000000 -1.000000
vn -0.270568 -0.000000 -0.962701
vn -0.270568 0.000000 0.962701
vn -0.270568 0.000000 0.962701
vn 0.417552 -0.000000 -0.908653
vn 0.156126 -0.000000 -0.987737
vn 0.156126 -0.000000 -0.987737
vn 0.417552 -0.000000 -0.908653
vn 0.000000 0.000000 1.000000
vn 0.000000 0.000000 1.000000
vn 0.270568 -0.000000 -0.962701
vn 0.270568 -0.000000 -0.962701
vn -1.000000 0.000000 0.000000
vn -1.000000 0.000000 0.000000
vn -1.000000 0.000000 0.000000
vn -1.000000 0.000000 0.000000
vn 0.156126 0.000000 0.987737
vn 0.417552 0.000000 0.908653
vn 0.417552 0.000000 0.908653
vn 0.156126 0.000000 0.987737
vn 0.000000 1.000000 -0.000000
vn 0.000000 1.000000 -0.000000
vn 0.000000 1.000000 -0.000000
vn 0.000000 1.000000 -0.000000
vn 0.000000 1.000000 -0.000000
vn 0.000000 1.000000 -0.000000
vn 1.000000 0.000000 0.000000
vn 1.000000 0.000000 0.000000
vn 1.000000 0.000000 0.000000
vn 1.000000 0.000000 0.000000
vn 0.270568 0.000000 0.962701
vn 0.270568 0.000000 0.962701
vn 0.000000 -0.000000 -1.000000
vn 0.000000 -0.000000 -1.000000
vn 0.000000 0.000000 1.000000
vn 0.000000 0.000000 1.000000
vn 0.000000 -1.000000 0.000000
vn 0.000000 -1.000000 0.000000
vn 0.000000 -1.000000 0.000000
vn 0.000000 -1.000000 0.000000
vn 0.000000 -1.000000 0.000000
vn 0.000000 -1.000000 0.000000
vn 0.000000 -1.000000 0.000000
vn 0.000000 -1.000000 0.000000
vn -0.000000 -1.000000 0.000000
vn -0.000000 -1.000000 0.000000
vn -0.000000 -1.000000 0.000000
vn -0.000000 -1.000000 0.000000
vn 0.000000 -1.000000 0.000000
vn 0.000000 -1.000000 0.000000
vn 0.000000 -1.000000 0.000000
vn 0.000000 -1.000000 0.000000
s off
g anvil:Mesh
usemtl anvil:Material
f 1/1/1 2/2/2 4/3/3 3/4/4
f 5/5/5 7/6/6 8/7/7 6/8/8
f 99/9/9 97/10/10 105/11/11 107/12/12
f 98/13/13 95/150/14 103/151/15 106/14/16
f 101/152/17 100/15/18 108/16/19 109/153/20
f 96/154/21 102/155/22 110/156/23 104/157/24
s 1
f 14/17/25 10/18/26 18/19/27 20/20/28
f 14/17/25 15/21/29 11/22/30 10/18/26
f 16/23/31 13/24/32 9/25/33 12/26/34
f 9/25/33 10/18/26 11/22/30 12/26/34
f 16/27/31 15/21/29 14/17/25 13/28/32
f 17/29/35 19/30/36 23/31/37 21/32/38
f 13/28/32 14/17/25 20/20/28 19/33/36
f 9/25/33 13/24/32 19/30/36 17/29/35
f 10/18/26 9/25/33 17/29/35 18/19/27
f 24/34/39 22/35/40 26/36/41 28/37/42
f 18/19/27 17/29/35 21/32/38 22/35/40
f 20/20/28 18/19/27 22/35/40 24/34/39
f 19/33/36 20/20/28 24/34/39 23/38/37
f 26/36/41 25/39/43 29/40/44 30/41/45
f 23/38/37 24/34/39 28/37/42 27/42/46
f 21/32/38 23/31/37 27/43/46 25/39/43
f 22/35/40 21/32/38 25/39/43 26/36/41
f 31/44/47 32/45/48 30/41/45 29/40/44
f 28/37/42 26/36/41 30/41/45 32/45/48
f 27/42/46 28/37/42 32/45/48 31/46/47
f 25/39/43 27/43/46 31/47/47 29/40/44
f 38/48/49 47/49/50 46/50/51 37/51/52
f 36/52/53 37/51/52 46/50/51 45/53/54
f 35/54/55 36/52/53 45/53/54 44/55/56
f 34/56/57 35/54/55 44/55/56 43/57/58
f 113/58/59 16/59/31 12/60/34 48/61/60
f 12/60/34 56/62/61 57/63/62 126/158/63
f 33/64/64 34/56/57 43/57/58 120/65/65
f 53/66/66 52/67/67 61/68/68 62/69/69
f 51/70/70 60/71/71 61/68/68 52/67/67
f 50/72/72 59/73/73 60/71/71 51/70/70
f 49/74/74 58/75/75 59/73/73 50/72/72
f 126/159/63 57/63/62 58/75/75 49/74/74
s 4
f 124/76/76 125/77/77 140/160/78 139/161/79
f 123/78/80 124/76/76 139/162/79 138/163/81
f 122/79/82 123/78/80 138/164/81 137/165/83
f 121/80/84 122/79/82 137/166/83 136/167/85
f 42/81/86 121/80/84 136/168/85 135/169/87
f 41/82/88 42/81/86 135/170/87 132/171/89
f 40/83/90 41/82/88 132/172/89 55/84/91
s off
f 39/85/92 119/173/93 133/174/94 54/86/95
s 1
f 15/87/29 16/88/31 117/89/96 118/90/97
f 116/91/98 115/92/99 130/175/100 131/176/101
f 115/92/99 114/93/102 129/177/103 130/178/100
f 114/93/102 112/94/104 128/179/105 129/180/103
f 112/94/104 111/95/106 127/181/107 128/182/105
f 111/95/106 113/58/59 48/61/60 127/183/107
f 142/96/108 15/87/29 118/90/97
f 16/88/31 33/64/64 120/65/65 117/89/96
f 141/184/109 134/185/110 11/97/30
f 11/97/30 134/186/110 56/62/61 12/60/34
s 6
f 81/98/111 89/99/112 68/100/113 76/101/114
s 7
f 153/102/115 66/103/116 70/104/117 155/105/118
f 65/106/119 74/107/120 78/108/121 69/109/122
f 165/187/123 153/102/115 155/105/118 169/110/124
s 9
f 93/111/125 85/188/126 72/112/127 64/113/128
f 77/189/129 151/190/130 87/114/131 80/115/132
f 85/191/126 77/192/129 80/115/132 72/112/127
s 6
f 73/193/133 81/98/111 76/101/114 84/116/134
s 9
f 86/117/135 94/118/136 63/119/137 71/120/138
s 6
f 149/194/139 73/195/133 84/116/134 91/121/140
s 9
f 146/196/141 86/117/135 71/120/138 79/122/142
s off
f 144/197/143 147/198/144 88/123/145 92/124/146
s 6
f 90/125/147 154/126/148 75/127/149 67/128/150
s 7
f 74/107/120 82/199/151 156/200/152 78/108/121
f 179/201/153 165/202/123 169/110/124 181/203/154
f 82/204/151 166/205/155 170/206/156 156/207/152
f 166/208/155 179/209/153 181/210/154 170/211/156
s off
f 152/212/157 150/213/158 159/129/159 161/130/160
s 6
f 89/99/112 90/125/147 67/128/150 68/100/113
f 154/126/148 143/214/161 83/131/162 75/127/149
s 9
f 148/215/163 146/216/141 79/122/142 176/132/164
f 94/118/136 93/111/125 64/113/128 63/119/137
s 6
f 143/217/161 145/218/165 157/133/166 83/131/162
s 11
f 180/134/167 162/135/168 160/136/169 174/137/170
f 178/138/171 182/139/172 158/140/173 177/141/174
f 173/142/175 168/143/176 182/139/172 178/138/171
f 172/144/177 167/145/178 168/143/176 173/142/175
f 172/144/177 164/146/179 171/147/180 167/145/178
f 164/146/179 163/148/181 175/149/182 171/147/180
f 163/148/181 180/134/167 174/137/170 175/149/182
