# This file uses meters as units for non-parametric coordinates.

v 0.491492 0.000000 -0.387342
v 0.617148 0.000000 -0.387342
v 0.491492 0.859738 -0.387342
v 0.617148 0.859738 -0.387342
v 0.491492 0.859738 -0.572447
v 0.617148 0.859738 -0.572447
v 0.491492 0.000000 -0.572447
v 0.617148 0.000000 -0.572447
v -0.617148 0.000000 -0.387342
v -0.491494 0.000000 -0.387342
v -0.617148 0.859738 -0.387342
v -0.491494 0.859738 -0.387342
v -0.617148 0.859738 -0.572447
v -0.491494 0.859738 -0.572447
v -0.617148 0.000000 -0.572447
v -0.491494 0.000000 -0.572447
v -0.617148 0.000000 0.572449
v -0.491494 0.000000 0.572449
v -0.617148 0.859738 0.572449
v -0.491494 0.859738 0.572449
v -0.617148 0.859738 0.387344
v -0.491494 0.859738 0.387344
v -0.617148 0.000000 0.387344
v -0.491494 0.000000 0.387344
v 0.491492 0.000000 0.572449
v 0.617148 0.000000 0.572449
v 0.491492 0.859738 0.572449
v 0.617148 0.859738 0.572449
v 0.491492 0.859738 0.387344
v 0.617148 0.859738 0.387344
v 0.491492 0.000000 0.387344
v 0.617148 0.000000 0.387344
v -0.617148 1.020224 0.572449
v 0.617148 1.020224 0.572449
v -0.617148 1.020224 -0.387342
v 0.617148 1.020224 -0.387342
v -0.521031 1.121788 0.500908
v 0.521029 1.121788 0.500908
v 0.521029 1.121788 -0.305292
v -0.521031 1.121788 -0.305292
v -0.617148 1.020224 -0.572447
v 0.617148 1.020224 -0.572447
v -0.176324 1.020224 -0.387341
v 0.176322 1.020224 -0.387341
v -0.176324 2.020224 -0.387341
v 0.176322 2.020224 -0.387341
v -0.176324 2.020224 -0.572445
v 0.176322 2.020224 -0.572445
v -0.176324 1.020224 -0.572445
v 0.176322 1.020224 -0.572445
v -0.617148 1.020224 -0.387341
v -0.491494 1.020224 -0.387341
v -0.617148 2.020224 -0.387341
v -0.491494 2.020224 -0.387341
v -0.617148 2.020224 -0.572445
v -0.491494 2.020224 -0.572445
v -0.617148 1.020224 -0.572445
v -0.491494 1.020224 -0.572445
v -0.617146 2.020224 -0.387341
v 0.617148 2.020224 -0.387341
v -0.617146 2.185249 -0.387341
v 0.617148 2.185249 -0.387341
v -0.617146 2.185249 -0.572445
v 0.617148 2.185249 -0.572445
v -0.617146 2.020224 -0.572445
v 0.617148 2.020224 -0.572445
v 0.491492 1.020224 -0.387341
v 0.617148 1.020224 -0.387341
v 0.491492 2.020224 -0.387341
v 0.617148 2.020224 -0.387341
v 0.491492 2.020224 -0.572445
v 0.617148 2.020224 -0.572445
v 0.491492 1.020224 -0.572445
v 0.617148 1.020224 -0.572445
vt 0.233882 0.047549
vt 0.233882 0.047549
vt 0.233882 0.047549
vt 0.233882 0.047549
vt 0.233882 0.047549
vt 0.233882 0.047549
vt 0.233882 0.047549
vt 0.233882 0.047549
vt 0.168642 0.047549
vt 0.168642 0.047549
vt 0.168642 0.047549
vt 0.168642 0.047549
vt 0.202114 0.047549
vt 0.202114 0.047549
vt 0.202114 0.047549
vt 0.202114 0.047549
vt 0.202114 0.047549
vt 0.202114 0.047549
vt 0.202114 0.047549
vt 0.202114 0.047549
vt 0.233882 0.047549
vt 0.233882 0.047549
vt 0.233882 0.047549
vt 0.233882 0.047549
vt 0.233882 0.047549
vt 0.233882 0.047549
vt 0.233882 0.047549
vt 0.233882 0.047549
vt 0.168642 0.047549
vt 0.168642 0.047549
vt 0.168642 0.047549
vt 0.168642 0.047549
vt 0.202114 0.047549
vt 0.202114 0.047549
vt 0.202114 0.047549
vt 0.202114 0.047549
vt 0.202114 0.047549
vt 0.202114 0.047549
vt 0.202114 0.047549
vt 0.202114 0.047549
vt 0.233882 0.047549
vt 0.233882 0.047549
vt 0.233882 0.047549
vt 0.233882 0.047549
vt 0.233882 0.047549
vt 0.233882 0.047549
vt 0.233882 0.047549
vt 0.233882 0.047549
vt 0.168642 0.047549
vt 0.168642 0.047549
vt 0.168642 0.047549
vt 0.168642 0.047549
vt 0.202114 0.047549
vt 0.202114 0.047549
vt 0.202114 0.047549
vt 0.202114 0.047549
vt 0.202114 0.047549
vt 0.202114 0.047549
vt 0.202114 0.047549
vt 0.202114 0.047549
vt 0.233882 0.047549
vt 0.233882 0.047549
vt 0.233882 0.047549
vt 0.233882 0.047549
vt 0.233882 0.047549
vt 0.233882 0.047549
vt 0.233882 0.047549
vt 0.233882 0.047549
vt 0.168642 0.047549
vt 0.168642 0.047549
vt 0.168642 0.047549
vt 0.168642 0.047549
vt 0.202114 0.047549
vt 0.202114 0.047549
vt 0.202114 0.047549
vt 0.202114 0.047549
vt 0.202114 0.047549
vt 0.202114 0.047549
vt 0.202114 0.047549
vt 0.202114 0.047549
vt 0.233882 0.047549
vt 0.233882 0.047549
vt 0.233882 0.047549
vt 0.233882 0.047549
vt 0.168642 0.047549
vt 0.168642 0.047549
vt 0.168642 0.047549
vt 0.168642 0.047549
vt 0.202114 0.047549
vt 0.202114 0.047549
vt 0.202114 0.047549
vt 0.202114 0.047549
vt 0.731837 0.097882
vt 0.731837 0.097882
vt 0.731837 0.097882
vt 0.731837 0.097882
vt 0.202114 0.047549
vt 0.202114 0.047549
vt 0.202114 0.047549
vt 0.202114 0.047549
vt 0.705127 0.097882
vt 0.705127 0.097882
vt 0.705127 0.097882
vt 0.705127 0.097882
vt 0.681088 0.097882
vt 0.681088 0.097882
vt 0.681088 0.097882
vt 0.681088 0.097882
vt 0.705127 0.097882
vt 0.705127 0.097882
vt 0.705127 0.097882
vt 0.705127 0.097882
vt 0.681088 0.097882
vt 0.681088 0.097882
vt 0.681088 0.097882
vt 0.681088 0.097882
vt 0.269414 0.047109
vt 0.269414 0.047109
vt 0.269414 0.047109
vt 0.269414 0.047109
vt 0.234977 0.047109
vt 0.234977 0.047109
vt 0.234977 0.047109
vt 0.234977 0.047109
vt 0.198628 0.047109
vt 0.198628 0.047109
vt 0.198628 0.047109
vt 0.198628 0.047109
vt 0.198628 0.047109
vt 0.198628 0.047109
vt 0.236507 0.046552
vt 0.236507 0.046552
vt 0.236507 0.046552
vt 0.236507 0.046552
vt 0.236507 0.046552
vt 0.236507 0.046552
vt 0.236507 0.046552
vt 0.236507 0.046552
vt 0.204740 0.046552
vt 0.204740 0.046552
vt 0.204740 0.046552
vt 0.204740 0.046552
vt 0.204740 0.046552
vt 0.204740 0.046552
vt 0.204740 0.046552
vt 0.204740 0.046552
vt 0.236507 0.046552
vt 0.236507 0.046552
vt 0.236507 0.046552
vt 0.236507 0.046552
vt 0.236507 0.046552
vt 0.236507 0.046552
vt 0.236507 0.046552
vt 0.236507 0.046552
vt 0.204740 0.046552
vt 0.204740 0.046552
vt 0.204740 0.046552
vt 0.204740 0.046552
vt 0.204740 0.046552
vt 0.204740 0.046552
vt 0.204740 0.046552
vt 0.204740 0.046552
vt 0.236507 0.046552
vt 0.236507 0.046552
vt 0.236507 0.046552
vt 0.236507 0.046552
vt 0.267898 0.046552
vt 0.267898 0.046552
vt 0.267898 0.046552
vt 0.267898 0.046552
vt 0.236507 0.046552
vt 0.236507 0.046552
vt 0.236507 0.046552
vt 0.236507 0.046552
vt 0.171268 0.046552
vt 0.171268 0.046552
vt 0.171268 0.046552
vt 0.171268 0.046552
vt 0.204740 0.046552
vt 0.204740 0.046552
vt 0.204740 0.046552
vt 0.204740 0.046552
vt 0.204740 0.046552
vt 0.204740 0.046552
vt 0.204740 0.046552
vt 0.204740 0.046552
vt 0.236507 0.046552
vt 0.236507 0.046552
vt 0.236507 0.046552
vt 0.236507 0.046552
vt 0.236507 0.046552
vt 0.236507 0.046552
vt 0.236507 0.046552
vt 0.236507 0.046552
vt 0.204740 0.046552
vt 0.204740 0.046552
vt 0.204740 0.046552
vt 0.204740 0.046552
vt 0.204740 0.046552
vt 0.204740 0.046552
vt 0.204740 0.046552
vt 0.204740 0.046552
vn 0.000000 0.000000 1.000000
vn 0.000000 0.000000 1.000000
vn 0.000000 0.000000 1.000000
vn 0.000000 0.000000 1.000000
vn 0.000000 0.000000 -1.000000
vn 0.000000 0.000000 -1.000000
vn 0.000000 0.000000 -1.000000
vn 0.000000 0.000000 -1.000000
vn 0.000000 -1.000000 0.000000
vn 0.000000 -1.000000 0.000000
vn 0.000000 -1.000000 0.000000
vn 0.000000 -1.000000 0.000000
vn 1.000000 0.000000 0.000000
vn 1.000000 0.000000 0.000000
vn 1.000000 0.000000 0.000000
vn 1.000000 0.000000 0.000000
vn -1.000000 0.000000 0.000000
vn -1.000000 0.000000 0.000000
vn -1.000000 0.000000 0.000000
vn -1.000000 0.000000 0.000000
vn 0.000000 0.000000 1.000000
vn 0.000000 0.000000 1.000000
vn 0.000000 0.000000 1.000000
vn 0.000000 0.000000 1.000000
vn 0.000000 0.000000 -1.000000
vn 0.000000 0.000000 -1.000000
vn 0.000000 0.000000 -1.000000
vn 0.000000 0.000000 -1.000000
vn 0.000000 -1.000000 0.000000
vn 0.000000 -1.000000 0.000000
vn 0.000000 -1.000000 0.000000
vn 0.000000 -1.000000 0.000000
vn 1.000000 0.000000 0.000000
vn 1.000000 0.000000 0.000000
vn 1.000000 0.000000 0.000000
vn 1.000000 0.000000 0.000000
vn -1.000000 0.000000 0.000000
vn -1.000000 0.000000 0.000000
vn -1.000000 0.000000 0.000000
vn -1.000000 0.000000 0.000000
vn 0.000000 0.000000 1.000000
vn 0.000000 0.000000 1.000000
vn 0.000000 0.000000 1.000000
vn 0.000000 0.000000 1.000000
vn 0.000000 0.000000 -1.000000
vn 0.000000 0.000000 -1.000000
vn 0.000000 0.000000 -1.000000
vn 0.000000 0.000000 -1.000000
vn 0.000000 -1.000000 0.000000
vn 0.000000 -1.000000 0.000000
vn 0.000000 -1.000000 0.000000
vn 0.000000 -1.000000 0.000000
vn 1.000000 0.000000 0.000000
vn 1.000000 0.000000 0.000000
vn 1.000000 0.000000 0.000000
vn 1.000000 0.000000 0.000000
vn -1.000000 0.000000 0.000000
vn -1.000000 0.000000 0.000000
vn -1.000000 0.000000 0.000000
vn -1.000000 0.000000 0.000000
vn 0.000000 0.000000 1.000000
vn 0.000000 0.000000 1.000000
vn 0.000000 0.000000 1.000000
vn 0.000000 0.000000 1.000000
vn 0.000000 0.000000 -1.000000
vn 0.000000 0.000000 -1.000000
vn 0.000000 0.000000 -1.000000
vn 0.000000 0.000000 -1.000000
vn 0.000000 -1.000000 0.000000
vn 0.000000 -1.000000 0.000000
vn 0.000000 -1.000000 0.000000
vn 0.000000 -1.000000 0.000000
vn 1.000000 0.000000 0.000000
vn 1.000000 0.000000 0.000000
vn 1.000000 0.000000 0.000000
vn 1.000000 0.000000 0.000000
vn -1.000000 0.000000 0.000000
vn -1.000000 0.000000 0.000000
vn -1.000000 0.000000 0.000000
vn -1.000000 0.000000 0.000000
vn 0.000000 0.000000 1.000000
vn 0.000000 0.000000 1.000000
vn 0.000000 0.000000 1.000000
vn 0.000000 0.000000 1.000000
vn 0.000000 -1.000000 0.000000
vn 0.000000 -1.000000 0.000000
vn 0.000000 -1.000000 0.000000
vn 0.000000 -1.000000 0.000000
vn -1.000000 0.000007 0.000000
vn -1.000000 0.000007 0.000000
vn -1.000000 0.000007 0.000000
vn -1.000000 0.000007 0.000000
vn 0.000000 1.000000 0.000000
vn 0.000000 1.000000 0.000000
vn 0.000000 1.000000 0.000000
vn 0.000000 1.000000 0.000000
vn 1.000000 0.000000 0.000000
vn 1.000000 0.000000 0.000000
vn 1.000000 0.000000 0.000000
vn 1.000000 0.000000 0.000000
vn 0.000000 0.575863 0.817546
vn 0.000000 0.575863 0.817547
vn 0.000000 0.575863 0.817546
vn 0.000000 0.575863 0.817547
vn 0.726312 0.687365 0.000000
vn 0.726312 0.687365 0.000000
vn 0.726312 0.687365 0.000000
vn 0.726312 0.687365 0.000000
vn 0.000000 0.628418 -0.777876
vn 0.000000 0.628418 -0.777876
vn 0.000000 0.628418 -0.777876
vn 0.000000 0.628418 -0.777876
vn -0.726316 0.687361 0.000000
vn -0.726316 0.687361 0.000000
vn -0.726316 0.687361 0.000000
vn -0.726316 0.687361 0.000000
vn 0.000000 1.000000 0.000000
vn 0.000000 1.000000 0.000000
vn 0.000000 1.000000 0.000000
vn 0.000000 1.000000 0.000000
vn 0.000000 0.000000 -1.000000
vn 0.000000 0.000000 -1.000000
vn 0.000000 0.000000 -1.000000
vn 0.000000 0.000000 -1.000000
vn -1.000000 0.000000 0.000000
vn -1.000000 0.000000 0.000000
vn -1.000000 0.000000 0.000000
vn 1.000000 0.000000 0.000000
vn 1.000000 0.000000 0.000000
vn 1.000000 0.000000 0.000000
vn 0.000000 0.000000 1.000000
vn 0.000000 0.000000 1.000000
vn 0.000000 0.000000 1.000000
vn 0.000000 0.000000 1.000000
vn 0.000000 0.000000 -1.000000
vn 0.000000 0.000000 -1.000000
vn 0.000000 0.000000 -1.000000
vn 0.000000 0.000000 -1.000000
vn 1.000000 0.000000 0.000000
vn 1.000000 0.000000 0.000000
vn 1.000000 0.000000 0.000000
vn 1.000000 0.000000 0.000000
vn -1.000000 0.000000 0.000000
vn -1.000000 0.000000 0.000000
vn -1.000000 0.000000 0.000000
vn -1.000000 0.000000 0.000000
vn 0.000000 0.000000 1.000000
vn 0.000000 0.000000 1.000000
vn 0.000000 0.000000 1.000000
vn 0.000000 0.000000 1.000000
vn 0.000000 0.000000 -1.000000
vn 0.000000 0.000000 -1.000000
vn 0.000000 0.000000 -1.000000
vn 0.000000 0.000000 -1.000000
vn 1.000000 0.000000 0.000000
vn 1.000000 0.000000 0.000000
vn 1.000000 0.000000 0.000000
vn 1.000000 0.000000 0.000000
vn -1.000000 0.000000 0.000000
vn -1.000000 0.000000 0.000000
vn -1.000000 0.000000 0.000000
vn -1.000000 0.000000 0.000000
vn 0.000000 0.000000 1.000000
vn 0.000000 0.000000 1.000000
vn 0.000000 0.000000 1.000000
vn 0.000000 0.000000 1.000000
vn 0.000000 1.000000 0.000000
vn 0.000000 1.000000 0.000000
vn 0.000000 1.000000 0.000000
vn 0.000000 1.000000 0.000000
vn 0.000000 0.000000 -1.000000
vn 0.000000 0.000000 -1.000000
vn 0.000000 0.000000 -1.000000
vn 0.000000 0.000000 -1.000000
vn 0.000000 -1.000000 0.000000
vn 0.000000 -1.000000 0.000000
vn 0.000000 -1.000000 0.000000
vn 0.000000 -1.000000 0.000000
vn 1.000000 0.000000 0.000000
vn 1.000000 0.000000 0.000000
vn 1.000000 0.000000 0.000000
vn 1.000000 0.000000 0.000000
vn -1.000000 0.000000 0.000000
vn -1.000000 0.000000 0.000000
vn -1.000000 0.000000 0.000000
vn -1.000000 0.000000 0.000000
vn 0.000000 0.000000 1.000000
vn 0.000000 0.000000 1.000000
vn 0.000000 0.000000 1.000000
vn 0.000000 0.000000 1.000000
vn 0.000000 0.000000 -1.000000
vn 0.000000 0.000000 -1.000000
vn 0.000000 0.000000 -1.000000
vn 0.000000 0.000000 -1.000000
vn 1.000000 0.000000 0.000000
vn 1.000000 0.000000 0.000000
vn 1.000000 0.000000 0.000000
vn 1.000000 0.000000 0.000000
vn -1.000000 0.000000 0.000000
vn -1.000000 0.000000 0.000000
vn -1.000000 0.000000 0.000000
vn -1.000000 0.000000 0.000000
s off
f 1/1/1 2/2/2 4/3/3 3/4/4
f 5/5/5 6/6/6 8/7/7 7/8/8
f 7/9/9 8/10/10 2/11/11 1/12/12
f 2/13/13 8/14/14 6/15/15 4/16/16
f 7/17/17 1/18/18 3/19/19 5/20/20
f 9/21/21 10/22/22 12/23/23 11/24/24
f 13/25/25 14/26/26 16/27/27 15/28/28
f 15/29/29 16/30/30 10/31/31 9/32/32
f 10/33/33 16/34/34 14/35/35 12/36/36
f 15/37/37 9/38/38 11/39/39 13/40/40
f 17/41/41 18/42/42 20/43/43 19/44/44
f 21/45/45 22/46/46 24/47/47 23/48/48
f 23/49/49 24/50/50 18/51/51 17/52/52
f 18/53/53 24/54/54 22/55/55 20/56/56
f 23/57/57 17/58/58 19/59/59 21/60/60
f 25/61/61 26/62/62 28/63/63 27/64/64
f 29/65/65 30/66/66 32/67/67 31/68/68
f 31/69/69 32/70/70 26/71/71 25/72/72
f 26/73/73 32/74/74 30/75/75 28/76/76
f 31/77/77 25/78/78 27/79/79 29/80/80
f 19/81/81 28/82/82 34/83/83 33/84/84
f 13/85/85 6/86/86 28/87/87 19/88/88
f 13/89/89 19/90/90 33/91/91 35/92/92
f 37/93/93 38/94/94 39/95/95 40/96/96
f 28/97/97 6/98/98 36/99/99 34/100/100
f 33/101/101 34/102/102 38/103/103 37/104/104
f 34/105/105 36/106/106 39/107/107 38/108/108
f 36/109/109 35/110/110 40/111/111 39/112/112
f 35/113/113 33/114/114 37/115/115 40/116/116
f 35/117/117 36/118/118 42/119/119 41/120/120
f 41/121/121 42/122/122 6/123/123 13/124/124
f 13/125/125 35/126/126 41/127/127
f 36/128/128 6/129/129 42/130/130
f 43/131/131 44/132/132 46/133/133 45/134/134
f 47/135/135 48/136/136 50/137/137 49/138/138
f 44/139/139 50/140/140 48/141/141 46/142/142
f 49/143/143 43/144/144 45/145/145 47/146/146
f 51/147/147 52/148/148 54/149/149 53/150/150
f 55/151/151 56/152/152 58/153/153 57/154/154
f 52/155/155 58/156/156 56/157/157 54/158/158
f 57/159/159 51/160/160 53/161/161 55/162/162
f 59/163/163 60/164/164 62/165/165 61/166/166
f 61/167/167 62/168/168 64/169/169 63/170/170
f 63/171/171 64/172/172 66/173/173 65/174/174
f 65/175/175 66/176/176 60/177/177 59/178/178
f 60/179/179 66/180/180 64/181/181 62/182/182
f 65/183/183 59/184/184 61/185/185 63/186/186
f 67/187/187 68/188/188 70/189/189 69/190/190
f 71/191/191 72/192/192 74/193/193 73/194/194
f 68/195/195 74/196/196 72/197/197 70/198/198
f 73/199/199 67/200/200 69/201/201 71/202/202
